<svg width="32" height="32" viewBox="0 0 32 32" fill="none" xmlns="http://www.w3.org/2000/svg">
  <rect width="32" height="32" rx="8" fill="url(#gradient)"/>
  <path d="M16 8C13.5 8 11.5 10 11.5 12.5C11.5 15 13.5 17 16 17C18.5 17 20.5 15 20.5 12.5C20.5 10 18.5 8 16 8Z" fill="white"/>
  <path d="M12 18C12 18 14 20 16 20C18 20 20 18 20 18V22C20 23.1 19.1 24 18 24H14C12.9 24 12 23.1 12 22V18Z" fill="white"/>
  <defs>
    <linearGradient id="gradient" x1="0" y1="0" x2="32" y2="32" gradientUnits="userSpaceOnUse">
      <stop offset="0%" style="stop-color:#00D4AA"/>
      <stop offset="100%" style="stop-color:#A855F7"/>
    </linearGradient>
  </defs>
</svg>